<?xml version="1.0" encoding="UTF-8"?>
<svg xmlns="http://www.w3.org/2000/svg" xmlns:xlink="http://www.w3.org/1999/xlink" width="1365.53" height="186.892" viewBox="0 0 1365.53 186.892">
<path fill-rule="nonzero" fill="rgb(0.392151%, 69.412231%, 67.843628%)" fill-opacity="1" d="M 516.53125 89.257812 L 517.589844 89.257812 C 521.964844 89.257812 525.761719 91.507812 528.976562 96.011719 C 530.195312 98.328125 530.808594 100.738281 530.808594 103.246094 C 530.808594 108.199219 528.363281 112.21875 523.476562 115.308594 C 521.289062 116.335938 519.296875 116.851562 517.496094 116.851562 L 516.433594 116.851562 C 511.738281 116.851562 507.878906 114.472656 504.855469 109.710938 C 503.699219 107.460938 503.121094 105.210938 503.121094 102.957031 C 503.121094 98.003906 505.5 94.015625 510.257812 90.996094 C 512.378906 89.835938 514.472656 89.257812 516.53125 89.257812 "/>
<path fill-rule="nonzero" fill="rgb(90.588379%, 22.744751%, 17.64679%)" fill-opacity="1" d="M 911.992188 112.320312 C 916.042969 115.601562 918.070312 119.621094 918.070312 124.378906 C 918.070312 128.113281 916.683594 131.554688 913.921875 134.703125 C 910.703125 137.535156 907.9375 138.949219 905.625 138.949219 L 900.605469 138.949219 C 899.640625 138.949219 898.195312 138.5 896.265625 137.597656 C 890.863281 134.320312 888.164062 129.878906 888.164062 124.285156 C 888.164062 121.96875 888.867188 119.496094 890.285156 116.855469 C 893.5625 111.96875 897.648438 109.523438 902.535156 109.523438 L 903.789062 109.523438 C 906.492188 109.523438 909.226562 110.457031 911.992188 112.320312 "/>
<path fill-rule="nonzero" fill="rgb(94.902039%, 60.784912%, 0%)" fill-opacity="1" d="M 1220.566406 76.757812 L 1221.242188 76.757812 C 1226.453125 76.757812 1230.539062 79.460938 1233.496094 84.863281 C 1234.265625 86.792969 1234.652344 88.660156 1234.652344 90.460938 C 1234.652344 95.863281 1231.984375 100.011719 1226.644531 102.90625 C 1224.714844 103.675781 1223.011719 104.0625 1221.53125 104.0625 L 1220.179688 104.0625 C 1215.808594 104.0625 1212.078125 101.78125 1208.992188 97.214844 C 1207.769531 94.898438 1207.15625 92.617188 1207.15625 90.363281 C 1207.15625 85.089844 1209.792969 80.972656 1215.066406 78.011719 C 1217.0625 77.179688 1218.894531 76.757812 1220.566406 76.757812 "/>
<path fill-rule="nonzero" fill="rgb(18.823242%, 19.607544%, 24.705505%)" fill-opacity="1" d="M 317 6.757812 L 318.351562 6.757812 C 324.011719 6.757812 328.898438 10.199219 333.015625 17.082031 C 339.898438 27.304688 343.335938 38.464844 343.335938 50.558594 L 343.335938 50.945312 C 343.335938 65.800781 338.257812 79.148438 328.09375 90.980469 C 323.015625 96.128906 319.507812 99.214844 317.578125 100.242188 C 314.492188 102.367188 311.53125 104.070312 308.703125 105.355469 L 308.703125 105.550781 C 328.449219 130.824219 339.222656 144.71875 341.023438 147.226562 C 342.4375 149.929688 343.144531 152.40625 343.144531 154.65625 L 343.144531 156.296875 C 343.144531 161.632812 340.378906 166.167969 334.847656 169.898438 C 332.339844 171.121094 330.507812 171.730469 329.347656 171.730469 L 323.851562 171.730469 C 320.957031 171.476562 317.898438 169.898438 314.683594 167.003906 C 285.417969 129.507812 270.496094 110.277344 269.917969 109.3125 C 268.761719 106.675781 268.183594 104.039062 268.183594 101.402344 L 268.183594 100.050781 C 268.183594 93.8125 271.042969 88.34375 276.769531 83.648438 C 280.5 81.140625 284.003906 79.886719 287.285156 79.886719 C 290.242188 79.308594 292.785156 78.570312 294.90625 77.667969 C 301.722656 74.386719 306.707031 69.371094 309.859375 62.617188 C 311.46875 58.566406 312.273438 54.996094 312.273438 51.910156 L 312.273438 51.425781 C 312.273438 51.167969 312.304688 50.976562 312.367188 50.847656 L 312.273438 50.171875 L 312.273438 49.691406 C 312.273438 44.289062 310.40625 38.882812 306.675781 33.480469 C 306.742188 33.289062 306.773438 33.160156 306.773438 33.097656 C 303.75 30.136719 302.238281 26.535156 302.238281 22.292969 L 302.238281 22 C 302.238281 16.597656 304.714844 12.257812 309.667969 8.976562 C 312.113281 7.496094 314.554688 6.757812 317 6.757812 "/>
<path fill-rule="nonzero" fill="rgb(18.823242%, 19.607544%, 24.705505%)" fill-opacity="1" d="M 389.695312 6.757812 L 470.347656 6.757812 L 470.734375 6.949219 L 471.023438 6.949219 C 475.847656 6.949219 479.769531 9.425781 482.792969 14.378906 C 483.820312 16.4375 484.335938 18.5625 484.335938 20.746094 C 484.335938 26.085938 481.699219 30.199219 476.425781 33.097656 C 474.625 33.933594 472.824219 34.351562 471.023438 34.351562 L 388.824219 34.351562 C 384.964844 34.351562 381.554688 32.582031 378.597656 29.042969 C 376.667969 26.46875 375.703125 23.832031 375.703125 21.132812 L 375.703125 19.972656 C 375.703125 15.730469 377.828125 12.097656 382.070312 9.074219 C 384.386719 7.660156 386.671875 6.949219 388.921875 6.949219 L 389.308594 6.949219 Z M 389.695312 6.757812 "/>
<path fill-rule="nonzero" fill="rgb(18.823242%, 19.607544%, 24.705505%)" fill-opacity="1" d="M 389.695312 75.757812 L 470.347656 75.757812 L 470.734375 75.949219 L 471.023438 75.949219 C 475.847656 75.949219 479.769531 78.425781 482.792969 83.378906 C 483.820312 85.4375 484.335938 87.5625 484.335938 89.746094 C 484.335938 95.085938 481.699219 99.199219 476.425781 102.097656 C 474.625 102.933594 472.824219 103.351562 471.023438 103.351562 L 388.824219 103.351562 C 384.964844 103.351562 381.554688 101.582031 378.597656 98.042969 C 376.667969 95.46875 375.703125 92.832031 375.703125 90.132812 L 375.703125 88.972656 C 375.703125 84.730469 377.828125 81.097656 382.070312 78.074219 C 384.386719 76.660156 386.671875 75.949219 388.921875 75.949219 L 389.308594 75.949219 Z M 389.695312 75.757812 "/>
<path fill-rule="nonzero" fill="rgb(18.823242%, 19.607544%, 24.705505%)" fill-opacity="1" d="M 389.695312 144.429688 L 470.347656 144.429688 C 470.347656 144.558594 471.34375 144.71875 473.339844 144.914062 C 476.683594 145.746094 479.222656 147.261719 480.960938 149.445312 C 483.210938 152.082031 484.335938 155.105469 484.335938 158.515625 C 484.335938 163.726562 481.699219 167.839844 476.425781 170.863281 C 474.816406 171.441406 473.726562 171.730469 473.144531 171.730469 L 386.898438 171.730469 C 384.644531 171.730469 381.941406 170.21875 378.792969 167.199219 C 376.734375 164.433594 375.703125 161.632812 375.703125 158.804688 L 375.703125 157.9375 C 375.703125 153.175781 378.117188 149.285156 382.941406 146.261719 C 384.355469 145.425781 386.542969 144.847656 389.5 144.527344 C 389.5 144.460938 389.566406 144.429688 389.695312 144.429688 "/>
<path fill-rule="nonzero" fill="rgb(18.823242%, 19.607544%, 24.705505%)" fill-opacity="1" d="M 520.796875 6.757812 L 550.226562 6.757812 C 567.269531 6.757812 583.703125 12.613281 599.523438 24.316406 C 601.96875 26.183594 605.410156 29.398438 609.847656 33.964844 C 624.253906 50.429688 631.457031 68.472656 631.457031 88.085938 L 631.457031 90.691406 C 631.457031 111.53125 623.257812 130.699219 606.855469 148.191406 C 600.164062 154.300781 594.796875 158.355469 590.746094 160.347656 C 588.558594 161.828125 584.667969 163.789062 579.070312 166.234375 C 569.164062 169.898438 561.125 171.730469 554.949219 171.730469 L 518.871094 171.730469 C 517.003906 171.730469 514.6875 170.605469 511.921875 168.355469 C 508.964844 165.460938 507.484375 162.054688 507.484375 158.128906 C 507.484375 152.726562 510.152344 148.578125 515.492188 145.683594 C 517.421875 144.847656 519.511719 144.429688 521.765625 144.429688 L 548.96875 144.429688 C 563.503906 144.429688 576.046875 139.476562 586.59375 129.570312 C 590.96875 125.007812 594.085938 121.148438 595.953125 117.996094 C 601.292969 108.863281 603.960938 99.828125 603.960938 90.886719 L 603.960938 87.988281 C 603.960938 76.21875 599.714844 64.996094 591.226562 54.320312 C 579.96875 41.003906 565.371094 34.351562 547.425781 34.351562 L 535.171875 34.351562 L 535.171875 56.730469 C 535.171875 63.871094 531.765625 68.632812 524.945312 71.011719 C 523.597656 71.269531 522.441406 71.394531 521.476562 71.394531 L 521.378906 71.394531 C 515.71875 71.394531 511.472656 68.664062 508.644531 63.195312 C 507.871094 61.332031 507.484375 59.335938 507.484375 57.214844 L 507.484375 20.746094 C 507.484375 14.765625 510.410156 10.421875 516.265625 7.722656 C 517.871094 7.078125 519.382812 6.757812 520.796875 6.757812 "/>
<path fill-rule="nonzero" fill="rgb(18.823242%, 19.607544%, 24.705505%)" fill-opacity="1" d="M 916.105469 14.476562 C 916.683594 15.3125 920.703125 23.257812 928.167969 38.304688 C 962.253906 106.226562 979.296875 140.28125 979.296875 140.472656 C 983.671875 148.515625 985.859375 153.980469 985.859375 156.875 C 985.859375 161.054688 984.3125 164.722656 981.226562 167.871094 C 978.140625 170.445312 975.46875 171.730469 973.21875 171.730469 L 968.105469 171.730469 C 967.722656 171.730469 967.269531 171.667969 966.757812 171.539062 C 963.023438 170.320312 960.195312 168.257812 958.265625 165.363281 L 908.871094 67.632812 C 907.582031 64.03125 905.910156 62.230469 903.851562 62.230469 C 902.757812 62.230469 901.761719 62.683594 900.863281 63.582031 C 887.550781 90.277344 848.835938 165.1875 848.445312 165.765625 C 845.039062 170.335938 840.824219 172.617188 835.808594 172.617188 C 833.492188 172.617188 831.144531 172.039062 828.765625 170.882812 C 823.171875 167.601562 820.375 163.066406 820.375 157.277344 C 820.375 156.632812 820.824219 154.738281 821.722656 151.585938 C 822.046875 150.558594 866.324219 64.417969 890.828125 15.730469 C 894.109375 10.714844 898.257812 8.203125 903.273438 8.203125 L 904.433594 8.203125 C 908.804688 8.203125 912.695312 10.296875 916.105469 14.476562 "/>
<path fill-rule="nonzero" fill="rgb(18.823242%, 19.607544%, 24.705505%)" fill-opacity="1" d="M 1140.011719 6.757812 L 1220.664062 6.757812 L 1221.050781 6.949219 L 1221.339844 6.949219 C 1226.164062 6.949219 1230.085938 9.425781 1233.109375 14.378906 C 1234.136719 16.4375 1234.652344 18.5625 1234.652344 20.746094 C 1234.652344 26.085938 1232.015625 30.199219 1226.742188 33.097656 C 1224.941406 33.933594 1223.140625 34.351562 1221.339844 34.351562 L 1139.140625 34.351562 C 1135.28125 34.351562 1131.871094 32.582031 1128.914062 29.042969 C 1126.984375 26.46875 1126.019531 23.832031 1126.019531 21.132812 L 1126.019531 19.972656 C 1126.019531 15.730469 1128.144531 12.097656 1132.386719 9.074219 C 1134.703125 7.660156 1136.988281 6.949219 1139.238281 6.949219 L 1139.625 6.949219 Z M 1140.011719 6.757812 "/>
<path fill-rule="nonzero" fill="rgb(18.823242%, 19.607544%, 24.705505%)" fill-opacity="1" d="M 1139.816406 75.738281 L 1181.398438 75.929688 C 1184.164062 75.929688 1187.121094 77.347656 1190.273438 80.175781 C 1192.785156 83.070312 1194.039062 86.222656 1194.039062 89.632812 C 1194.039062 94.390625 1191.816406 98.28125 1187.378906 101.304688 C 1185.191406 102.589844 1183.070312 103.234375 1181.011719 103.234375 L 1138.949219 103.234375 C 1134.832031 103.234375 1131.261719 101.175781 1128.242188 97.058594 C 1126.757812 94.746094 1126.019531 92.425781 1126.019531 90.113281 L 1126.019531 88.957031 C 1126.019531 84.582031 1128.304688 80.820312 1132.871094 77.667969 C 1135.1875 76.507812 1137.371094 75.929688 1139.433594 75.929688 L 1139.625 75.929688 C 1139.753906 75.929688 1139.816406 75.867188 1139.816406 75.738281 "/>
<path fill-rule="nonzero" fill="rgb(18.823242%, 19.607544%, 24.705505%)" fill-opacity="1" d="M 812.496094 82.097656 C 812.496094 78.691406 811.242188 75.539062 808.734375 72.644531 C 805.582031 69.8125 802.625 68.398438 799.859375 68.398438 L 758.277344 68.207031 C 758.277344 68.335938 758.210938 68.398438 758.085938 68.398438 L 757.890625 68.398438 C 755.832031 68.398438 753.648438 68.976562 751.332031 70.136719 C 746.761719 73.289062 744.480469 77.050781 744.480469 81.425781 L 744.480469 82.582031 C 744.480469 84.894531 745.21875 87.210938 746.699219 89.527344 C 749.722656 93.644531 753.292969 95.699219 757.410156 95.699219 L 782.78125 95.699219 L 782.78125 122.144531 C 770.5625 135.519531 755.609375 142.210938 737.921875 142.210938 C 726.214844 142.210938 715.539062 139.253906 705.890625 133.332031 C 687.621094 120.792969 678.492188 103.972656 678.492188 82.875 C 678.492188 66.15625 684.3125 52.003906 695.953125 40.429688 C 700.714844 36.632812 703.09375 32.292969 703.09375 27.40625 C 703.09375 25.730469 702.609375 23.640625 701.644531 21.132812 C 698.367188 15.410156 693.894531 12.546875 688.234375 12.546875 C 683.410156 12.546875 679.101562 14.832031 675.308594 19.394531 C 657.492188 36.890625 648.582031 58.019531 648.582031 82.78125 C 648.582031 113.074219 662.027344 137.964844 688.910156 157.453125 C 694.632812 161.183594 700.199219 164.109375 705.601562 166.234375 C 715.957031 169.898438 724.347656 171.730469 730.78125 171.730469 L 744.769531 171.730469 C 749.914062 171.730469 757.277344 170.222656 766.863281 167.199219 C 772.007812 165.527344 777.347656 163.082031 782.878906 159.867188 C 787.894531 156.972656 793.941406 152.308594 801.015625 145.875 C 807.832031 138.609375 811.660156 133.816406 812.496094 131.503906 L 812.496094 83.550781 C 812.496094 83.273438 812.472656 82.996094 812.460938 82.71875 C 812.46875 82.511719 812.496094 82.308594 812.496094 82.097656 "/>
<path fill-rule="nonzero" fill="rgb(18.823242%, 19.607544%, 24.705505%)" fill-opacity="1" d="M 264.785156 11.246094 C 261.632812 8.414062 258.671875 7 255.910156 7 L 144.285156 6.757812 C 142.035156 6.757812 139.75 7.433594 137.4375 8.78125 C 133.0625 11.871094 130.875 15.796875 130.875 20.554688 C 130.875 22.675781 131.519531 25.054688 132.804688 27.695312 C 136.023438 32.132812 139.785156 34.351562 144.09375 34.351562 L 185.867188 34.351562 L 185.867188 157.066406 C 185.867188 161.570312 187.152344 165.171875 189.726562 167.871094 C 192.554688 170.320312 195.097656 171.605469 197.347656 171.730469 L 202.074219 171.730469 C 202.785156 171.730469 204.003906 171.378906 205.742188 170.671875 C 210.949219 167.648438 213.554688 163.5625 213.554688 158.417969 L 213.554688 34.300781 L 255.523438 34.300781 C 257.582031 34.300781 259.703125 33.660156 261.890625 32.371094 C 266.328125 29.351562 268.546875 25.460938 268.546875 20.699219 C 268.546875 17.292969 267.292969 14.140625 264.785156 11.246094 "/>
<path fill-rule="nonzero" fill="rgb(18.823242%, 19.607544%, 24.705505%)" fill-opacity="1" d="M 1092.785156 11.246094 C 1089.632812 8.414062 1086.675781 7 1083.910156 7 L 972.285156 6.757812 C 970.035156 6.757812 967.75 7.433594 965.4375 8.78125 C 961.0625 11.871094 958.875 15.796875 958.875 20.554688 C 958.875 22.675781 959.519531 25.054688 960.804688 27.695312 C 964.023438 32.132812 967.785156 34.351562 972.09375 34.351562 L 1013.867188 34.351562 L 1013.867188 157.066406 C 1013.867188 161.570312 1015.152344 165.171875 1017.726562 167.871094 C 1020.558594 170.320312 1023.097656 171.605469 1025.347656 171.730469 L 1030.074219 171.730469 C 1030.785156 171.730469 1032.003906 171.378906 1033.742188 170.671875 C 1038.949219 167.648438 1041.554688 163.5625 1041.554688 158.417969 L 1041.554688 34.300781 L 1083.523438 34.300781 C 1085.582031 34.300781 1087.703125 33.660156 1089.890625 32.371094 C 1094.328125 29.351562 1096.546875 25.460938 1096.546875 20.699219 C 1096.546875 17.292969 1095.292969 14.140625 1092.785156 11.246094 "/>
<path fill-rule="nonzero" fill="rgb(18.823242%, 19.607544%, 24.705505%)" fill-opacity="1" d="M 1140.011719 144.429688 L 1220.664062 144.429688 C 1220.664062 144.558594 1221.660156 144.71875 1223.65625 144.914062 C 1227 145.746094 1229.539062 147.261719 1231.277344 149.445312 C 1233.527344 152.082031 1234.652344 155.105469 1234.652344 158.515625 C 1234.652344 163.726562 1232.015625 167.839844 1226.742188 170.863281 C 1225.132812 171.441406 1224.042969 171.730469 1223.460938 171.730469 L 1137.214844 171.730469 C 1134.960938 171.730469 1132.257812 170.21875 1129.109375 167.199219 C 1127.050781 164.433594 1126.019531 161.632812 1126.019531 158.804688 L 1126.019531 157.9375 C 1126.019531 153.175781 1128.433594 149.285156 1133.257812 146.261719 C 1134.671875 145.425781 1136.859375 144.847656 1139.816406 144.527344 C 1139.816406 144.460938 1139.882812 144.429688 1140.011719 144.429688 "/>
<path fill-rule="nonzero" fill="rgb(18.823242%, 19.607544%, 24.705505%)" fill-opacity="1" d="M 75.910156 122.546875 C 75.214844 120.679688 74.1875 119.222656 72.8125 118.183594 L 35.726562 92.035156 L 72.878906 65.835938 C 75.542969 63.734375 76.890625 60.316406 76.890625 55.667969 C 76.890625 52.078125 76.226562 49.085938 74.917969 46.78125 C 73.089844 43.5625 70.746094 42.886719 69.101562 42.886719 C 67.683594 42.886719 66.234375 43.398438 64.78125 44.421875 L 22.882812 74.507812 C 20.660156 76.070312 18.921875 78.484375 17.710938 81.679688 C 16.542969 84.757812 15.953125 88.242188 15.953125 92.035156 C 15.953125 95.96875 16.546875 99.492188 17.714844 102.503906 C 18.917969 105.605469 20.636719 108.035156 22.871094 109.761719 L 64.792969 139.867188 C 66.234375 140.878906 67.640625 141.394531 68.980469 141.394531 C 71.375 141.394531 73.347656 140.046875 74.859375 137.394531 C 76.207031 135.015625 76.890625 131.988281 76.890625 128.398438 C 76.890625 126.28125 76.5625 124.308594 75.910156 122.546875 Z M 75.910156 122.546875 "/>
<path fill-rule="nonzero" fill="rgb(18.823242%, 19.607544%, 24.705505%)" fill-opacity="1" d="M 1353.8125 85.335938 C 1352.609375 82.234375 1350.890625 79.804688 1348.65625 78.078125 L 1306.734375 47.972656 C 1305.292969 46.960938 1303.882812 46.445312 1302.546875 46.445312 C 1300.15625 46.445312 1298.179688 47.792969 1296.667969 50.445312 C 1295.320312 52.824219 1294.636719 55.851562 1294.636719 59.441406 C 1294.636719 61.5625 1294.964844 63.53125 1295.617188 65.292969 C 1296.3125 67.160156 1297.339844 68.617188 1298.710938 69.65625 L 1335.800781 95.804688 L 1298.648438 122.003906 C 1295.984375 124.101562 1294.636719 127.523438 1294.636719 132.167969 C 1294.636719 135.761719 1295.300781 138.753906 1296.609375 141.0625 C 1298.441406 144.277344 1300.78125 144.953125 1302.425781 144.953125 C 1303.84375 144.953125 1305.292969 144.441406 1306.746094 143.417969 L 1348.648438 113.332031 C 1350.867188 111.769531 1352.605469 109.355469 1353.816406 106.160156 C 1354.984375 103.082031 1355.574219 99.597656 1355.574219 95.804688 C 1355.574219 91.871094 1354.980469 88.347656 1353.8125 85.335938 "/>
</svg>
